<svg width="48" height="48" viewBox="0 0 48 48" fill="none" xmlns="http://www.w3.org/2000/svg">
<path d="M24.2181 2.66734C-1.27682 2.8655 8.70237 24.7844 17.7713 37.0513C18.4795 38.0092 19.6373 38.5539 20.8648 38.5539H26.216C27.4208 38.5539 28.5596 38.0285 29.2733 37.1012C38.8358 24.6785 49.7618 2.4688 24.2181 2.66734Z" fill="#D9D9D9"/>
<path d="M24.2181 2.66734C-1.27682 2.8655 8.70237 24.7844 17.7713 37.0513C18.4795 38.0092 19.6373 38.5539 20.8648 38.5539H26.216C27.4208 38.5539 28.5596 38.0285 29.2733 37.1012C38.8358 24.6785 49.7618 2.4688 24.2181 2.66734Z" fill="url(#paint0_radial_1292_1123)"/>
<path d="M20.0972 40.9259C19.8269 40.1513 20.4304 39.3514 21.2851 39.3514H26.5202C27.3906 39.3514 27.9955 40.1788 27.6959 40.9595L26.3185 44.5482C26.1376 45.0194 25.6681 45.3327 25.1428 45.3327H22.5373C21.9983 45.3327 21.5198 45.0032 21.3494 44.5147L20.0972 40.9259Z" fill="#D9D9D9"/>
<path d="M20.0972 40.9259C19.8269 40.1513 20.4304 39.3514 21.2851 39.3514H26.5202C27.3906 39.3514 27.9955 40.1788 27.6959 40.9595L26.3185 44.5482C26.1376 45.0194 25.6681 45.3327 25.1428 45.3327H22.5373C21.9983 45.3327 21.5198 45.0032 21.3494 44.5147L20.0972 40.9259Z" fill="url(#paint1_radial_1292_1123)"/>
<defs>
<radialGradient id="paint0_radial_1292_1123" cx="0" cy="0" r="1" gradientTransform="matrix(24.6562 39.4865 -53.9408 70.9795 6.05706 0.105985)" gradientUnits="userSpaceOnUse">
<stop stop-color="#327BDA"/>
<stop offset="1" stop-color="#54A6E2"/>
</radialGradient>
<radialGradient id="paint1_radial_1292_1123" cx="0" cy="0" r="1" gradientTransform="matrix(24.6562 39.4865 -53.9408 70.9795 6.05706 0.105985)" gradientUnits="userSpaceOnUse">
<stop stop-color="#327BDA"/>
<stop offset="1" stop-color="#54A6E2"/>
</radialGradient>
</defs>
</svg>
